<svg xmlns="http://www.w3.org/2000/svg" viewBox="0 0 234.58 257.05" role="img" aria-label="TIN"><defs><style>.cls-1{fill:#394b6a;}.cls-2{fill:#f15d25;}.cls-3{fill:#f15e25;}</style></defs><title>Logo TIN</title><path class="cls-1" d="M24.29,271.89c12.1-4.58,24.56-8.82,36.63-14,14.55-6.2,26.89-15.54,35.36-29.19s17.22-27,24.6-41.17c7.06-13.54,3.15-23.13-10.59-29.92-4.3-2.12-8.94-3.54-14.35-5.63h4.75c18.54,0,37.07-.15,55.6.15,3,0,7.12,1.25,8.62,3.39,1.15,1.64-.37,6-1.83,8.46q-23.79,40.29-48,80.32c-3.82,6.32-5.57,12.62-3.38,20,1.66,5.58-.16,7.58-6.17,7.59C78.3,271.91,51.08,271.89,24.29,271.89Z" transform="translate(-24.29 -14.84)"/><path class="cls-2" d="M186,118.74A21.61,21.61,0,1,1,164.22,97,21.43,21.43,0,0,1,186,118.74Z" transform="translate(-24.29 -14.84)"/><path class="cls-3" d="M146.4,20.14C194.84.5,255.07,38,258.87,90.64,235.49,43.3,198,20.39,146.4,20.14Z" transform="translate(-24.29 -14.84)"/><path class="cls-3" d="M148.85,47.78c37.78-14.62,80.89,14.7,84.11,52.33C214.85,65,187,47.88,148.85,47.78Z" transform="translate(-24.29 -14.84)"/><path class="cls-3" d="M157.85,75c21.27-8.76,51.31,9.29,51.82,32C204.05,96.64,197.28,88.58,187.91,83A58.09,58.09,0,0,0,157.85,75Z" transform="translate(-24.29 -14.84)"/></svg>
